<svg xmlns="http://www.w3.org/2000/svg" width="1200" height="628" viewBox="0 0 1200 628">
  <defs>
    <linearGradient id="g" x1="0" x2="1">
      <stop offset="0%" stop-color="#0066FF"/>
      <stop offset="100%" stop-color="#00C2FF"/>
    </linearGradient>
    <style>
      .title{font-family:Inter, Arial, Helvetica, sans-serif; font-size:56px; fill:#FFF; font-weight:700}
      .subtitle{font-family:Inter, Arial, Helvetica, sans-serif; font-size:20px; fill:#E6F7FF}
      .tag{font-family:Inter, Arial, Helvetica, sans-serif; font-size:14px; fill:#004A80}
    </style>
  </defs>
  <rect width="1200" height="628" rx="20" fill="url(#g)" />
  <g transform="translate(60,64)">
    <rect width="520" height="500" rx="18" fill="rgba(255,255,255,0.06)"/>
    <g transform="translate(32,32)">
      <circle cx="68" cy="68" r="48" fill="#FFF" opacity="0.14"/>
      <g transform="translate(28,28)">
        <rect x="0" y="0" width="80" height="20" rx="4" fill="#FFF" opacity="0.18"/>
      </g>
      <text x="130" y="70" class="title">Sign Plex</text>
      <text x="130" y="110" class="subtitle">数字标牌管理与发布平台</text>

      <g transform="translate(0,150)">
        <rect x="0" y="0" width="240" height="36" rx="8" fill="#FFF" opacity="0.12"/>
        <text x="16" y="24" class="subtitle">设备管理 · 节目编辑 · 远程控制</text>
      </g>
    </g>
  </g>
  
  <g transform="translate(640,160)">
    <rect x="0" y="0" width="480" height="308" rx="14" fill="rgba(255,255,255,0.06)"/>
    <g transform="translate(28,28)">
      <rect x="0" y="0" width="200" height="120" rx="8" fill="#FFF" opacity="0.08"/>
      <rect x="220" y="0" width="232" height="28" rx="6" fill="#FFF" opacity="0.06"/>
      <rect x="220" y="44" width="232" height="28" rx="6" fill="#FFF" opacity="0.06"/>
      <rect x="220" y="88" width="232" height="28" rx="6" fill="#FFF" opacity="0.06"/>
    </g>
  </g>

  <g transform="translate(60,560)">
    <text class="tag">Built with uni-app-x • README thumbnail</text>
  </g>
</svg>